<mxfile host="app.diagrams.net" modified="2021-04-09T10:18:52.776Z" agent="5.0 (Macintosh; Intel Mac OS X 11_2_3) AppleWebKit/537.36 (KHTML, like Gecko) Chrome/89.0.4389.114 Safari/537.36" etag="Bnct6QDiuMdwRvarfW5r" version="14.5.8" type="github">
  <diagram id="gZp0j71fYsVLYFESxwqJ" name="Page-1">
    <mxGraphModel dx="1106" dy="646" grid="1" gridSize="10" guides="1" tooltips="1" connect="1" arrows="1" fold="1" page="0" pageScale="1" pageWidth="827" pageHeight="1169" math="0" shadow="0">
      <root>
        <mxCell id="0" />
        <mxCell id="1" parent="0" />
      </root>
    </mxGraphModel>
  </diagram>
</mxfile>
